<?xml version="1.0" encoding="UTF-8" standalone="no"?>
<!DOCTYPE svg PUBLIC "-//W3C//DTD SVG 20010904//EN" "http://www.w3.org/TR/2001/REC-SVG-20010904/DTD/svg10.dtd">
<svg version="1.0" xmlns="http://www.w3.org/2000/svg" width="1280.000000pt" height="664.000000pt" viewBox="0 0 1280.000000 664.000000" preserveAspectRatio="xMidYMid meet">
<metadata>
Created by potrace 1.15, written by Peter Selinger 2001-2017
</metadata>
<g transform="translate(0.000000,664.000000) scale(0.100000,-0.100000)" fill="#000000" stroke="none">
<path d="M9278 6578 c-57 -98 -108 -217 -108 -252 0 -17 9 -60 20 -96 11 -36 20 -83 20 -105 0 -52 -28 -197 -40 -209 -6 -6 -23 -4 -46 7 l-36 18 -103 -61 c-57 -33 -106 -60 -109 -60 -3 0 -23 26 -45 59 -83 122 -236 228 -386 266 -82 21 -233 21 -320 0 -178 -43 -335 -165 -409 -315 -136 -281 -22 -587 279 -749 132 -71 155 -92 155 -148 0 -56 -10 -58 -182 -35 -76 10 -138 16 -138 12 0 -3 25 -30 55 -60 30 -30 55 -60 55 -66 0 -6 -15 -14 -32 -18 -18 -4 -71 -18 -117 -32 -106 -32 -137 -61 -147 -133 -6 -45 -14 -59 -61 -106 -35 -36 -62 -55 -77 -55 -13 0 -26 -6 -29 -12 -2 -7 -48 -40 -102 -73 -183 -113 -317 -261 -401 -441 -114 -246 -174 -362 -191 -368 -27 -10 -223 -129 -223 -135 0 -3 60 -28 132 -56 163 -61 164 -63 125 -189 -34 -111 -26 -135 77 -238 52 -52 70 -57 117 -33 33 17 49 13 49 -13 0 -25 31 -65 41 -55 15 15 49 125 49 160 0 43 -18 86 -62 149 -48 67 -50 79 -27 118 20 34 69 211 69 250 0 11 22 55 50 96 27 41 58 97 67 124 12 33 25 51 42 58 14 5 65 49 115 98 206 202 365 350 379 350 9 0 18 -21 26 -57 7 -32 28 -94 47 -138 l34 -81 0 -182 0 -182 -86 -162 c-75 -144 -224 -451 -224 -464 0 -2 -16 -39 -36 -81 -30 -63 -35 -80 -25 -95 10 -16 8 -25 -8 -51 -11 -19 -17 -38 -12 -45 7 -12 -23 -186 -47 -277 -6 -22 -22 -92 -36 -156 -22 -105 -35 -139 -134 -340 -117 -237 -200 -389 -213 -389 -9 0 -14 28 -29 161 -11 107 -37 178 -234 627 -58 134 -104 247 -101 252 3 5 33 26 65 46 l60 37 -82 86 c-99 103 -172 205 -335 469 -118 190 -123 199 -123 253 0 144 49 266 178 439 103 138 155 228 186 322 40 117 36 153 -29 283 -82 165 -85 254 -12 362 44 63 135 131 336 249 281 164 439 283 477 356 18 35 9 72 -32 125 -34 45 -83 76 -349 218 -263 140 -372 209 -523 333 -63 51 -125 95 -137 98 -30 8 -195 -34 -219 -55 -24 -21 -19 -111 10 -167 34 -65 98 -93 265 -119 53 -8 105 -18 115 -21 55 -20 554 -378 554 -398 0 -35 -108 -100 -497 -298 -161 -81 -302 -148 -313 -148 -27 0 -42 40 -38 99 3 44 4 46 38 51 61 9 74 79 34 191 -11 32 -13 64 -8 128 17 222 -62 401 -205 465 -69 31 -202 50 -278 41 -85 -10 -172 -81 -245 -200 -41 -66 -57 -120 -99 -314 -33 -158 -47 -202 -89 -289 l-49 -102 -48 30 c-138 85 -478 316 -481 326 -4 15 194 215 283 286 88 70 204 147 275 183 116 59 179 76 305 84 153 10 173 20 215 105 44 89 39 108 -30 122 -30 6 -90 23 -132 37 -125 44 -135 41 -253 -73 -78 -75 -89 -82 -390 -233 -170 -86 -345 -179 -388 -207 -91 -60 -84 -62 -159 46 -52 76 -63 84 -114 82 -19 -1 -45 10 -73 30 -63 46 -187 94 -257 100 -53 4 -67 1 -107 -23 -42 -24 -52 -26 -111 -20 -74 8 -90 2 -158 -61 -51 -47 -88 -67 -157 -84 -78 -20 -111 -76 -75 -128 25 -37 14 -64 -45 -103 -74 -49 -76 -57 -46 -128 30 -71 30 -82 8 -143 -15 -44 -15 -49 1 -92 10 -25 31 -57 47 -71 27 -22 40 -25 107 -25 l76 0 -32 -33 c-66 -69 -64 -169 5 -205 33 -18 93 12 93 47 -1 11 -7 7 -21 -11 -20 -27 -52 -36 -75 -20 -35 23 -45 102 -19 152 23 44 46 38 73 -19 14 -32 34 -56 56 -69 39 -23 53 -71 40 -138 -6 -35 -33 -114 -38 -114 -2 0 -40 16 -86 36 -139 61 -255 56 -280 -11 -17 -45 -29 -221 -35 -501 -3 -153 -8 -315 -11 -359 l-5 -80 -207 7 c-159 5 -224 11 -282 26 -41 11 -77 18 -79 16 -2 -2 13 -49 33 -104 20 -56 36 -110 36 -120 0 -20 -45 -50 -74 -50 -8 0 -24 15 -35 34 -12 19 -50 61 -86 94 -47 45 -74 62 -103 67 -41 7 -117 -3 -107 -14 3 -3 40 -24 83 -46 84 -44 109 -75 98 -119 -9 -38 -31 -42 -81 -18 -39 19 -45 19 -56 6 -18 -22 -2 -44 57 -76 91 -50 176 -71 259 -65 74 5 75 5 75 -18 0 -36 -18 -77 -48 -109 l-27 -29 43 7 c145 22 689 274 766 355 17 17 33 31 37 31 16 0 148 -122 168 -154 29 -47 26 -73 -16 -136 -129 -193 -155 -212 -494 -358 -329 -142 -456 -213 -676 -378 -50 -38 -100 -80 -111 -94 -32 -42 -67 -187 -168 -710 -30 -157 -64 -323 -76 -370 -23 -96 -43 -132 -34 -60 4 25 18 144 31 266 l25 221 -36 124 c-68 235 -137 392 -321 734 -188 348 -262 519 -247 569 3 10 19 39 35 64 16 25 29 55 29 65 0 11 -20 78 -44 151 -70 205 -100 418 -100 708 -1 158 1 190 15 203 15 15 19 14 51 -5 20 -11 53 -46 73 -78 21 -31 66 -93 99 -138 34 -44 75 -101 93 -127 38 -55 70 -67 118 -44 40 19 188 146 385 330 l145 135 30 -18 c67 -41 92 -50 143 -50 29 0 63 5 75 11 30 16 77 60 77 74 0 6 -20 31 -45 55 -25 24 -45 49 -45 55 0 6 35 28 78 49 77 38 154 87 202 127 19 16 25 31 26 63 0 22 4 51 8 64 6 18 1 28 -23 49 -17 15 -31 37 -31 48 0 39 -28 65 -71 65 -37 0 -39 2 -39 30 0 72 -118 52 -196 -32 -37 -41 -55 -70 -78 -128 -10 -25 -34 -66 -53 -92 l-36 -47 -44 39 -45 39 -62 -31 -63 -31 23 -63 c13 -35 21 -70 18 -77 -18 -49 -280 -217 -337 -217 -55 0 -122 82 -177 220 -13 30 -33 65 -46 77 -16 14 -20 24 -13 29 6 3 14 3 18 -2 11 -17 116 -17 129 -1 11 12 8 19 -15 37 -15 12 -40 24 -54 27 -40 8 -129 92 -178 167 -26 40 -53 68 -69 74 -30 11 -122 88 -122 103 0 5 29 9 64 9 l64 0 32 49 c42 67 56 77 76 60 24 -20 39 6 59 109 32 162 57 208 143 257 101 59 162 149 162 244 0 85 -62 193 -147 255 -78 57 -281 116 -397 116 -30 0 -93 -7 -142 -15 -230 -40 -376 -125 -445 -261 -32 -65 -34 -73 -32 -164 2 -120 16 -153 96 -233 47 -46 70 -78 89 -127 31 -77 25 -91 -49 -109 -41 -11 -49 -10 -87 13 -24 14 -48 32 -56 40 -10 13 -36 16 -132 16 -110 0 -124 2 -190 30 -38 17 -71 30 -73 30 -1 0 -8 -13 -15 -29 -12 -31 -5 -56 24 -81 25 -20 20 -28 -31 -54 -65 -33 -76 -47 -132 -172 -61 -139 -163 -404 -159 -414 2 -4 66 21 143 56 77 35 141 59 143 54 5 -14 -21 -138 -109 -515 -97 -419 -105 -447 -127 -443 -14 3 -17 17 -17 82 l0 78 -53 31 -53 30 -48 -47 c-25 -25 -54 -46 -63 -46 -23 0 -42 -67 -70 -246 -18 -117 -20 -147 -10 -166 24 -45 124 -95 163 -83 9 3 24 30 35 60 10 30 24 55 31 55 18 0 110 -47 118 -61 4 -6 1 -55 -6 -110 -7 -54 -10 -102 -7 -105 3 -3 46 -12 94 -19 49 -8 101 -17 116 -20 l26 -6 -21 -47 c-17 -37 -22 -72 -25 -163 -6 -182 22 -335 132 -709 30 -102 73 -269 95 -373 75 -342 58 -404 -150 -570 -107 -86 -169 -152 -346 -363 l-102 -121 40 -129 c55 -182 68 -216 192 -517 l111 -267 80 7 c113 9 130 15 134 44 6 44 60 242 108 389 63 198 145 417 322 863 l151 378 -19 232 c-33 405 -61 807 -58 829 2 13 60 -79 169 -273 92 -162 235 -414 318 -561 83 -146 151 -275 151 -285 0 -21 -61 -124 -247 -418 -157 -248 -204 -331 -264 -466 -58 -128 -144 -380 -189 -554 -17 -66 -33 -127 -36 -136 -3 -12 4 -18 28 -23 88 -16 1055 -61 1095 -52 18 5 23 11 18 26 -5 16 1 19 52 25 32 3 65 7 73 8 11 2 17 20 21 62 9 97 52 159 105 153 46 -5 79 -66 99 -180 l6 -38 79 0 c43 0 85 3 94 6 23 9 21 102 -9 361 l-4 42 140 -6 141 -6 -6 39 c-3 21 -37 233 -76 470 l-70 431 0 329 1 329 282 173 c155 95 360 222 456 282 96 61 176 108 179 105 3 -2 -55 -109 -129 -237 -168 -294 -270 -492 -302 -588 -29 -84 -39 -204 -57 -685 -6 -148 -15 -375 -20 -504 -6 -129 -8 -236 -6 -239 2 -2 67 -6 143 -9 l138 -6 -82 -28 c-112 -37 -141 -56 -153 -99 -12 -41 -13 -180 -2 -196 5 -7 81 -9 243 -6 l236 4 5 68 c6 79 33 131 78 150 25 10 34 10 55 -4 30 -20 43 -49 57 -131 6 -33 15 -66 20 -72 7 -9 39 -13 94 -13 l84 0 0 53 c0 28 -5 106 -10 171 -8 100 -8 122 5 135 12 15 12 22 -3 64 -22 62 -13 75 74 107 69 26 69 26 68 63 -1 26 -48 132 -157 354 -86 175 -170 359 -188 408 -32 87 -33 95 -33 240 0 137 3 157 28 235 61 185 129 297 334 555 205 258 258 346 283 479 40 212 -42 374 -272 537 -54 38 -100 78 -104 88 -9 28 20 139 61 239 26 62 34 96 31 119 -14 81 26 48 242 -201 215 -249 247 -288 411 -511 83 -112 150 -213 150 -224 0 -11 -9 -76 -19 -143 -22 -140 -36 -408 -23 -453 7 -25 18 -33 63 -49 l55 -19 13 -276 c7 -152 17 -307 21 -346 5 -38 9 -125 9 -191 l1 -122 -32 2 -33 1 3 -55 c1 -30 7 -129 12 -220 5 -91 10 -379 10 -641 l0 -477 36 -7 c20 -3 34 -9 30 -12 -3 -3 -26 0 -52 6 -25 7 -48 10 -50 9 -8 -9 47 -108 66 -118 11 -6 41 -10 67 -8 45 3 47 4 79 63 18 32 32 61 30 62 -2 2 -22 -4 -46 -12 -59 -21 -62 -19 -40 18 10 17 28 66 40 107 23 85 70 330 70 368 0 14 7 30 15 36 10 8 24 90 49 291 37 299 50 490 66 1005 5 179 13 356 16 394 l6 69 102 -8 c55 -4 204 -9 329 -11 l228 -4 171 -223 c180 -236 226 -308 264 -415 29 -82 31 -129 7 -134 -17 -3 -18 -23 -18 -243 0 -233 -1 -245 -33 -395 -65 -307 -70 -323 -117 -390 l-44 -63 28 -33 c21 -23 31 -47 35 -86 12 -96 17 -107 44 -120 25 -12 27 -18 27 -73 0 -53 3 -60 25 -72 14 -7 51 -13 82 -13 l57 0 27 46 27 45 26 -24 c28 -26 100 -65 179 -96 112 -44 313 -67 361 -41 38 20 26 55 -34 101 -34 25 -58 52 -61 68 -4 14 -18 39 -33 54 l-26 29 55 -4 c53 -3 55 -2 61 27 4 17 7 110 8 207 l1 177 80 286 c44 158 89 335 100 394 45 236 52 268 76 319 13 30 46 91 73 136 82 135 129 235 167 351 56 173 135 298 227 360 28 19 55 35 60 35 5 0 131 -119 280 -264 285 -276 367 -351 442 -407 33 -25 44 -39 41 -54 -47 -218 -47 -221 -56 -525 -10 -322 -10 -327 -79 -629 -17 -73 -31 -144 -31 -158 l0 -25 94 7 c109 8 100 16 111 -110 4 -44 11 -87 16 -96 5 -10 28 -19 56 -24 26 -3 58 -9 69 -11 17 -5 27 5 52 49 50 89 67 86 138 -25 24 -37 56 -74 72 -82 36 -19 169 -46 224 -46 83 0 168 39 168 76 0 28 -50 68 -140 113 -81 39 -100 53 -127 95 -18 26 -31 52 -28 56 3 5 27 11 54 15 27 4 58 13 68 20 17 13 17 16 1 77 -9 34 -40 171 -68 303 -28 132 -69 319 -90 415 -21 96 -53 256 -70 355 -41 239 -51 271 -125 405 -116 210 -263 500 -255 505 4 3 60 24 124 49 l116 43 29 -32 c39 -45 81 -107 126 -188 l38 -69 38 39 c20 21 65 92 100 158 69 134 103 187 146 227 l29 27 -13 -107 c-7 -59 -13 -157 -15 -219 -3 -101 -1 -114 17 -132 18 -19 154 -61 195 -61 16 0 117 -231 222 -508 l39 -103 -22 -87 c-23 -92 -121 -393 -263 -807 -47 -137 -86 -261 -86 -274 -1 -76 151 -270 246 -312 70 -32 199 -32 268 -1 100 46 256 165 307 235 36 49 36 77 4 115 -39 47 -71 126 -104 257 -83 331 -81 453 8 722 23 66 41 139 41 162 0 22 -20 143 -44 268 -48 247 -72 410 -63 419 6 6 187 33 224 34 18 0 51 -47 179 -252 200 -322 223 -365 230 -424 10 -78 -13 -224 -67 -438 -59 -234 -82 -341 -104 -489 -16 -112 -45 -485 -45 -594 0 -61 1 -63 26 -63 26 0 26 1 20 53 l-6 52 16 -30 c25 -46 45 -65 69 -65 31 0 45 19 45 60 0 56 19 74 87 80 54 5 59 3 78 -22 49 -64 82 -110 107 -148 25 -36 32 -40 68 -40 23 0 53 8 67 17 25 16 26 17 21 1 -14 -35 185 -36 225 0 26 23 23 87 -8 117 -13 14 -31 25 -39 25 -9 0 -20 9 -26 20 -13 25 -8 27 72 33 32 2 61 7 65 11 7 7 5 15 -47 181 -93 297 -113 414 -150 890 -22 284 -46 505 -61 573 -18 81 -158 369 -324 667 -78 141 -86 160 -130 339 -20 82 -74 262 -120 400 -93 278 -126 401 -154 568 -24 142 -36 287 -24 273 6 -5 48 -62 95 -125 107 -146 210 -255 405 -427 188 -167 242 -229 390 -450 64 -95 119 -173 124 -173 5 0 13 10 20 22 9 17 13 18 19 7 4 -8 11 -144 14 -304 l7 -290 49 -195 c78 -311 73 -245 71 -1066 l-3 -742 105 -41 c58 -23 110 -41 116 -41 17 0 13 -16 -14 -70 -33 -65 -54 -128 -61 -181 -12 -101 67 -163 210 -163 91 0 143 14 175 48 21 22 21 29 19 225 -3 200 -3 203 20 221 12 10 26 20 31 22 21 8 -48 681 -105 1015 -28 171 -29 197 -8 271 12 40 15 78 11 136 -4 55 0 108 11 162 15 80 15 83 -6 139 -15 39 -22 79 -22 128 0 64 34 470 46 555 l5 33 34 -43 c53 -66 118 -206 180 -387 31 -91 65 -181 75 -200 19 -35 19 -4 20 1887 0 1824 -1 1922 -17 1922 -28 0 -176 -133 -231 -207 -61 -81 -80 -138 -61 -179 13 -26 106 -82 163 -99 18 -5 19 -13 13 -120 l-6 -115 30 0 c18 0 28 -4 24 -10 -3 -5 -20 -10 -37 -10 -52 0 -97 -29 -127 -82 -27 -47 -39 -82 -111 -342 -56 -199 -85 -253 -458 -865 -54 -88 -82 -144 -82 -163 l0 -30 56 4 56 3 -5 -54 c-3 -30 -10 -58 -16 -64 -5 -5 -55 -12 -109 -15 -155 -7 -253 30 -384 147 -37 33 -89 83 -115 113 -56 63 -183 256 -277 422 -86 151 -126 212 -167 259 -39 43 -69 51 -246 62 -62 4 -113 11 -113 17 0 5 23 39 50 75 28 36 48 68 45 71 -3 3 -77 -23 -165 -58 -88 -35 -163 -60 -167 -56 -5 4 -7 30 -6 58 1 36 7 56 24 74 26 28 43 30 90 10 70 -30 123 33 123 144 0 48 -6 76 -23 108 l-22 44 26 66 c36 90 73 214 81 271 14 111 -58 273 -172 380 -97 93 -150 118 -318 152 -209 43 -278 47 -367 19 -41 -12 -90 -30 -110 -40 -63 -33 -155 -145 -249 -303 -35 -57 -35 -58 -41 -29 -8 40 7 162 32 252 14 50 18 89 14 116 -5 37 -3 43 21 58 23 16 25 22 19 54 -19 102 -89 157 -156 122 -25 -14 -25 8 0 83 25 71 30 127 13 127 -4 0 -24 -28 -44 -62z m-294 -829 c48 -17 86 -33 86 -35 0 -3 -9 -22 -20 -44 -11 -22 -36 -83 -55 -136 -19 -54 -56 -136 -84 -183 -27 -47 -70 -133 -96 -191 -29 -64 -60 -116 -79 -133 -44 -39 -104 -69 -129 -65 -21 4 -21 5 4 17 31 15 59 60 59 95 0 16 19 47 53 87 150 176 188 263 188 428 0 53 -5 112 -11 131 -11 37 -13 60 -6 60 3 0 43 -14 90 -31z m382 -236 c17 -76 25 -97 67 -162 42 -64 107 -124 221 -204 25 -17 26 -19 19 -106 -7 -111 0 -152 36 -190 64 -68 130 -25 151 99 7 39 9 77 6 85 -8 21 0 19 52 -17 26 -18 74 -42 107 -54 l60 -22 -4 -68 c-2 -38 -4 -70 -6 -72 -3 -3 -290 -20 -387 -23 -38 -1 -68 -6 -68 -10 0 -4 36 -28 80 -54 81 -48 102 -65 78 -65 -8 0 -46 -16 -86 -35 -126 -60 -199 -148 -216 -260 -3 -22 -29 -287 -56 -590 -63 -693 -60 -675 -116 -735 -54 -58 -132 -100 -241 -130 -46 -12 -83 -26 -83 -29 0 -4 15 -12 33 -19 42 -16 28 -25 -81 -48 l-84 -18 -114 116 c-77 77 -114 122 -114 137 0 12 36 82 79 155 195 327 304 616 330 875 12 115 5 209 -34 449 -14 84 -25 167 -25 185 0 31 54 123 129 220 16 21 42 75 57 120 15 45 38 107 52 137 33 73 70 192 82 259 9 49 40 101 62 101 4 0 10 -12 14 -27z m-3042 -158 c3 -8 8 -37 12 -63 8 -60 -7 -95 -39 -90 -25 3 -26 22 -7 114 11 54 23 67 34 39z m-1622 -117 c83 -71 169 -129 368 -248 85 -52 157 -95 159 -97 11 -8 -82 -125 -160 -203 -101 -100 -230 -194 -365 -266 -115 -62 -117 -60 76 -99 170 -33 220 -48 515 -150 383 -132 389 -135 393 -172 7 -73 -48 -216 -124 -321 l-39 -54 -65 6 c-109 9 -324 88 -475 175 -77 44 -274 242 -339 340 -29 42 -70 127 -97 197 -25 68 -54 135 -63 149 -35 53 -134 111 -293 170 -40 15 -73 30 -73 34 0 24 185 171 217 171 78 0 119 104 77 193 -15 32 -15 38 0 84 19 58 53 94 133 138 45 26 61 30 73 21 8 -6 45 -37 82 -68z m5834 21 c37 -73 24 -201 -24 -225 -28 -14 -72 -6 -79 13 -3 8 3 43 15 77 11 33 24 77 28 96 8 42 21 70 34 70 5 0 17 -14 26 -31z m-736 -183 l45 -21 3 -58 c4 -69 -26 -142 -64 -159 -21 -10 -29 -7 -54 17 -50 48 -64 139 -34 215 18 45 21 45 104 6z m-5384 -52 c9 -48 -11 -110 -41 -130 -37 -24 -46 -10 -28 49 24 81 44 127 54 122 4 -3 11 -22 15 -41z m5477 -1026 c167 -214 247 -346 247 -411 0 -144 -307 -647 -395 -647 -18 0 -27 9 -37 38 -19 54 -16 491 6 697 34 327 53 455 70 455 3 0 52 -60 109 -132z m-883 -1296 c0 -10 -33 -42 -43 -42 -13 0 -47 30 -47 41 0 4 10 9 23 11 26 4 67 -2 67 -10z m-6223 -1994 c-3 -8 -6 -5 -6 6 -1 11 2 17 5 13 3 -3 4 -12 1 -19z m-502 -49 c9 -13 -30 -56 -68 -75 -26 -14 -28 -13 -37 11 -6 15 -10 37 -10 51 0 22 3 24 54 24 30 0 58 -5 61 -11z"/>
<path d="M7704 3916 c-10 -26 4 -48 28 -44 17 2 23 10 23 28 0 18 -6 26 -23 28 -13 2 -25 -3 -28 -12z"/>
</g>
</svg>