<?xml version="1.0" standalone="no"?>
<!DOCTYPE svg PUBLIC "-//W3C//DTD SVG 20010904//EN"
 "http://www.w3.org/TR/2001/REC-SVG-20010904/DTD/svg10.dtd">
<svg version="1.0" xmlns="http://www.w3.org/2000/svg"
 width="1101.000000pt" height="1280.000000pt" viewBox="0 0 1101.000000 1280.000000"
 preserveAspectRatio="xMidYMid meet">
<metadata>
Created by potrace 1.15, written by Peter Selinger 2001-2017
</metadata>
<g transform="translate(0.000000,1280.000000) scale(0.100000,-0.100000)"
fill="#000000" stroke="none">
<path d="M0 6401 l0 -6402 2148 4 c2316 4 2229 2 2712 57 1519 175 2867 720
3925 1587 733 600 1245 1238 1619 2013 320 665 506 1342 583 2120 22 219 25
976 5 1225 -55 695 -153 1208 -337 1760 -285 859 -732 1592 -1340 2200 -944
945 -2283 1545 -3905 1749 -551 70 -832 77 -3302 83 l-2108 5 0 -6401z m3945
3189 c993 -59 1710 -248 2314 -610 468 -280 811 -762 985 -1381 45 -160 80
-330 103 -499 15 -112 18 -203 18 -530 0 -416 -6 -515 -50 -777 -95 -561 -309
-1049 -619 -1409 -281 -327 -687 -595 -1161 -766 -431 -155 -986 -258 -1520
-283 -71 -3 -165 -8 -207 -11 l-78 -5 0 3140 0 3141 23 0 c12 0 99 -5 192 -10z"/>
</g>
</svg>
