<?xml version="1.0" encoding="UTF-8" standalone="no"?>
<svg
   xmlns:dc="http://purl.org/dc/elements/1.1/"
   xmlns:cc="http://creativecommons.org/ns#"
   xmlns:rdf="http://www.w3.org/1999/02/22-rdf-syntax-ns#"
   xmlns:svg="http://www.w3.org/2000/svg"
   xmlns="http://www.w3.org/2000/svg"
   xmlns:sodipodi="http://sodipodi.sourceforge.net/DTD/sodipodi-0.dtd"
   xmlns:inkscape="http://www.inkscape.org/namespaces/inkscape"
   width="200"
   height="200"
   id="svg6802"
   sodipodi:version="0.32"
   inkscape:version="1.0.1 (3bc2e813f5, 2020-09-07)"
   version="1.0"
   sodipodi:docname="Color_Palette_clip_art.svg"
   inkscape:output_extension="org.inkscape.output.svg.inkscape">
  <defs
     id="defs6804" />
  <sodipodi:namedview
     id="base"
     pagecolor="#ffffff"
     bordercolor="#666666"
     borderopacity="1.0"
     gridtolerance="10000"
     guidetolerance="10"
     objecttolerance="10"
     inkscape:pageopacity="0.0"
     inkscape:pageshadow="2"
     inkscape:zoom="0.98994949"
     inkscape:cx="-35.051857"
     inkscape:cy="29.907979"
     inkscape:document-units="px"
     inkscape:current-layer="layer1"
     showgrid="false"
     inkscape:window-width="1607"
     inkscape:window-height="886"
     inkscape:window-x="98"
     inkscape:window-y="69"
     inkscape:document-rotation="0"
     inkscape:window-maximized="0" />
  <metadata
     id="metadata6807">
    <rdf:RDF>
      <cc:Work
         rdf:about="">
        <dc:format>image/svg+xml</dc:format>
        <dc:type
           rdf:resource="http://purl.org/dc/dcmitype/StillImage" />
        <dc:title></dc:title>
        <cc:license
           rdf:resource="http://creativecommons.org/licenses/publicdomain/" />
        <dc:subject>
          <rdf:Bag>
            <rdf:li>palette</rdf:li>
            <rdf:li>paint</rdf:li>
            <rdf:li>color</rdf:li>
          </rdf:Bag>
        </dc:subject>
        <dc:contributor>
          <cc:Agent>
            <dc:title>Benjamin Pavie</dc:title>
          </cc:Agent>
        </dc:contributor>
      </cc:Work>
      <cc:License
         rdf:about="http://creativecommons.org/licenses/publicdomain/">
        <cc:permits
           rdf:resource="http://creativecommons.org/ns#Reproduction" />
        <cc:permits
           rdf:resource="http://creativecommons.org/ns#Distribution" />
        <cc:permits
           rdf:resource="http://creativecommons.org/ns#DerivativeWorks" />
      </cc:License>
    </rdf:RDF>
  </metadata>
  <g
     inkscape:label="Layer 1"
     inkscape:groupmode="layer"
     id="layer1"
     transform="translate(-35.642872,-59.576462)">
    <rect
       style="opacity:1;fill:#000000;fill-opacity:1;stroke:none;stroke-width:2;stroke-miterlimit:4;stroke-dasharray:none;stroke-dashoffset:0;stroke-opacity:1"
       id="rect6786"
       width="200"
       height="200"
       x="35.642872"
       y="59.576462"
       rx="26.785715"
       ry="23.587006" />
    <g
       id="g6820"
       transform="matrix(4.6511628,0,0,4.6511628,-1717.8456,-314.20108)">
      <path
         id="path6822"
         d="M 396.28125,82.9375 C 391.53435,82.9375 377.91396,83.78697 377.9375,95.25 C 377.93882,95.89425 379.16428,98.13688 380.1875,98.375 C 387.76301,100.13796 388.17415,106.20951 387.71875,111 C 387.68395,111.36275 388.30799,113.89101 388.84375,114.53125 C 393.18837,119.72312 394.66646,121.99999 400.53125,122 C 412.26085,122 418.84375,116.06794 418.84375,104.1875 C 418.84375,92.30704 408.01084,82.9375 396.28125,82.9375 z M 384.40625,91.125 C 385.39272,91.18303 386.54613,91.58939 387.625,92.3125 C 389.78273,93.75872 390.85072,95.98075 390,97.25 C 389.14927,98.51926 386.68899,98.35247 384.53125,96.90625 C 382.3735,95.46002 381.33678,93.26925 382.1875,92 C 382.61286,91.36537 383.41978,91.06697 384.40625,91.125 z"
         style="fill:#ffffff;fill-opacity:1;stroke:none;stroke-width:1.92477286;stroke-miterlimit:4;stroke-dasharray:3.84954572, 3.84954572;stroke-dashoffset:3.65706843;stroke-opacity:1" />
      <path
         transform="matrix(0.9491525,0,0,0.9105691,0.716094,-46.836002)"
         d="M 420.9375,149.64343 A 3.6875,3.84375 0 1 1 413.5625,149.64343 A 3.6875,3.84375 0 1 1 420.9375,149.64343 z"
         sodipodi:ry="3.84375"
         sodipodi:rx="3.6875"
         sodipodi:cy="149.64343"
         sodipodi:cx="417.25"
         id="path6824"
         style="opacity:1;fill:#ff7a00;fill-opacity:1;stroke:none;stroke-width:1.92477286;stroke-miterlimit:4;stroke-dasharray:3.84954572, 3.84954572;stroke-dashoffset:3.65706843;stroke-opacity:1"
         sodipodi:type="arc" />
      <path
         transform="matrix(0.9491525,0,0,0.9105691,10.653618,-41.898501)"
         d="M 420.9375,149.64343 A 3.6875,3.84375 0 1 1 413.5625,149.64343 A 3.6875,3.84375 0 1 1 420.9375,149.64343 z"
         sodipodi:ry="3.84375"
         sodipodi:rx="3.6875"
         sodipodi:cy="149.64343"
         sodipodi:cx="417.25"
         id="path6826"
         style="opacity:1;fill:#95d300;fill-opacity:1;stroke:none;stroke-width:1.92477286;stroke-miterlimit:4;stroke-dasharray:3.84954572, 3.84954572;stroke-dashoffset:3.65706843;stroke-opacity:1"
         sodipodi:type="arc" />
      <path
         transform="matrix(0.9491525,0,0,0.9105691,16.591118,-32.836001)"
         d="M 420.9375,149.64343 A 3.6875,3.84375 0 1 1 413.5625,149.64343 A 3.6875,3.84375 0 1 1 420.9375,149.64343 z"
         sodipodi:ry="3.84375"
         sodipodi:rx="3.6875"
         sodipodi:cy="149.64343"
         sodipodi:cx="417.25"
         id="path6828"
         style="opacity:1;fill:#00a6e4;fill-opacity:1;stroke:none;stroke-width:1.92477286;stroke-miterlimit:4;stroke-dasharray:3.84954572, 3.84954572;stroke-dashoffset:3.65706843;stroke-opacity:1"
         sodipodi:type="arc" />
      <path
         transform="matrix(0.9491525,0,0,0.9105691,11.772808,-23.843837)"
         d="M 420.9375,149.64343 A 3.6875,3.84375 0 1 1 413.5625,149.64343 A 3.6875,3.84375 0 1 1 420.9375,149.64343 z"
         sodipodi:ry="3.84375"
         sodipodi:rx="3.6875"
         sodipodi:cy="149.64343"
         sodipodi:cx="417.25"
         id="path6830"
         style="opacity:1;fill:#f9de00;fill-opacity:1;stroke:none;stroke-width:1.92477286;stroke-miterlimit:4;stroke-dasharray:3.84954572, 3.84954572;stroke-dashoffset:3.65706843;stroke-opacity:1"
         sodipodi:type="arc" />
      <path
         transform="matrix(0.9491525,0,0,0.9105691,1.647808,-22.843837)"
         d="M 420.9375,149.64343 A 3.6875,3.84375 0 1 1 413.5625,149.64343 A 3.6875,3.84375 0 1 1 420.9375,149.64343 z"
         sodipodi:ry="3.84375"
         sodipodi:rx="3.6875"
         sodipodi:cy="149.64343"
         sodipodi:cx="417.25"
         id="path6832"
         style="opacity:1;fill:#e600ad;fill-opacity:1;stroke:none;stroke-width:1.92477286;stroke-miterlimit:4;stroke-dasharray:3.84954572, 3.84954572;stroke-dashoffset:3.65706843;stroke-opacity:1"
         sodipodi:type="arc" />
    </g>
  </g>
</svg>
