<?xml version="1.0" encoding="UTF-8" standalone="no"?>
<svg
   xmlns:dc="http://purl.org/dc/elements/1.1/"
   xmlns:cc="http://creativecommons.org/ns#"
   xmlns:rdf="http://www.w3.org/1999/02/22-rdf-syntax-ns#"
   xmlns:svg="http://www.w3.org/2000/svg"
   xmlns="http://www.w3.org/2000/svg"
   xmlns:xlink="http://www.w3.org/1999/xlink"
   xmlns:sodipodi="http://sodipodi.sourceforge.net/DTD/sodipodi-0.dtd"
   xmlns:inkscape="http://www.inkscape.org/namespaces/inkscape"
   version="1.1"
   width="205.35355"
   height="632.53125"
   id="svg2"
   sodipodi:docname="heat.svg"
   inkscape:version="1.0.1 (3bc2e813f5, 2020-09-07)">
  <sodipodi:namedview
     pagecolor="#ffffff"
     bordercolor="#666666"
     borderopacity="1"
     objecttolerance="10"
     gridtolerance="10"
     guidetolerance="10"
     inkscape:pageopacity="0"
     inkscape:pageshadow="2"
     inkscape:window-width="1772"
     inkscape:window-height="1363"
     id="namedview35"
     showgrid="false"
     inkscape:zoom="1.5935972"
     inkscape:cx="102.67677"
     inkscape:cy="316.26562"
     inkscape:window-x="0"
     inkscape:window-y="0"
     inkscape:window-maximized="0"
     inkscape:current-layer="svg2" />
  <defs
     id="defs4">
    <linearGradient
       id="linearGradient3912">
      <stop
         id="stop3914"
         style="stop-color:#ffffff;stop-opacity:1"
         offset="0" />
      <stop
         id="stop3916"
         style="stop-color:#ffffff;stop-opacity:0"
         offset="1" />
    </linearGradient>
    <linearGradient
       id="linearGradient3902">
      <stop
         id="stop3904"
         style="stop-color:#00ff00;stop-opacity:1"
         offset="0" />
      <stop
         id="stop3910"
         style="stop-color:#f7ff00;stop-opacity:1"
         offset="0.61953294" />
      <stop
         id="stop3906"
         style="stop-color:#ff0000;stop-opacity:1"
         offset="1" />
    </linearGradient>
    <linearGradient
       x1="601.5387"
       y1="803.81433"
       x2="600.21661"
       y2="411.16162"
       id="linearGradient3924"
       xlink:href="#linearGradient3902"
       gradientUnits="userSpaceOnUse" />
    <radialGradient
       cx="581.70776"
       cy="790.62756"
       r="39.373638"
       fx="581.70776"
       fy="790.62756"
       id="radialGradient3926"
       xlink:href="#linearGradient3912"
       gradientUnits="userSpaceOnUse"
       gradientTransform="matrix(0.52069653,-0.29138,0.30719508,0.53690064,35.937677,535.60322)" />
  </defs>
  <metadata
     id="metadata7">
    <rdf:RDF>
      <cc:Work
         rdf:about="">
        <dc:format>image/svg+xml</dc:format>
        <dc:type
           rdf:resource="http://purl.org/dc/dcmitype/StillImage" />
        <dc:title></dc:title>
      </cc:Work>
    </rdf:RDF>
  </metadata>
  <g
     transform="translate(-259.64645,-264.84375)"
     id="layer1">
    <g
       transform="translate(-232.16103,4.7661891)"
       id="g3920">
      <path
         d="m 541.25,347.625 0,365.46875 c 0,1.53193 0.10158,3.03042 0.21875,4.53125 -22.68853,17.21806 -37.34375,44.47734 -37.34375,75.15625 0,52.07256 42.20869,94.28125 94.28125,94.28125 52.07256,0 94.28125,-42.20869 94.28125,-94.28125 0,-30.67627 -14.65856,-57.93795 -37.34375,-75.15625 0.11717,-1.50083 0.1875,-2.99932 0.1875,-4.53125 l 0,-365.40625 -111.875,0 c -0.81045,0 -1.60421,-0.0294 -2.40625,-0.0625 z"
         id="path3893"
         style="fill:url(#linearGradient3924);fill-opacity:1;stroke:none" />
      <path
         d="m 616.0814,788.6106 a 34.373638,33.712608 0 1 1 -68.74727,0 34.373638,33.712608 0 1 1 68.74727,0 z"
         transform="matrix(2.0769231,0,0,2.1372549,-644.96341,-906.10569)"
         id="path3895"
         style="fill:url(#radialGradient3926);fill-opacity:1;stroke:none" />
    </g>
    <path
       d="m 365.72321,269.83036 c -31.65714,0 -57.15625,25.46786 -57.15625,57.125 l 0,391.4375 c 0,1.53193 0.10158,3.03042 0.21875,4.53125 -22.68853,17.21806 -37.34375,44.47734 -37.34375,75.15625 0,52.07256 42.20869,94.28125 94.28125,94.28125 52.07256,0 94.28125,-42.20869 94.28125,-94.28125 0,-30.67627 -14.65856,-57.93795 -37.34375,-75.15625 0.11717,-1.50083 0.1875,-2.99932 0.1875,-4.53125 l 0,-391.4375 c 0,-31.65714 -25.46786,-57.125 -57.125,-57.125 z"
       id="path3069"
       style="fill:none;stroke:#000000;stroke-width:10;stroke-linecap:butt;stroke-linejoin:bevel;stroke-miterlimit:4;stroke-opacity:1;stroke-dasharray:none" />
    <g
       id="1" />
    <g
       id="1-1" />
    <g
       id="1-7" />
    <path
       d="m 321.90221,712.36218 87.642,0"
       id="path3869"
       style="fill:none;stroke:#000000;stroke-width:10;stroke-linecap:butt;stroke-linejoin:miter;stroke-miterlimit:4;stroke-opacity:1;stroke-dasharray:none" />
    <path
       d="m 321.90221,618.16519 87.642,0"
       id="path3873"
       style="fill:none;stroke:#000000;stroke-width:10;stroke-linecap:butt;stroke-linejoin:miter;stroke-miterlimit:4;stroke-opacity:1;stroke-dasharray:none" />
    <path
       d="m 321.90221,523.9682 87.642,0"
       id="path3877"
       style="fill:none;stroke:#000000;stroke-width:10;stroke-linecap:butt;stroke-linejoin:miter;stroke-miterlimit:4;stroke-opacity:1;stroke-dasharray:none" />
    <path
       d="m 321.90221,429.77121 87.642,0"
       id="path3881"
       style="fill:none;stroke:#000000;stroke-width:10;stroke-linecap:butt;stroke-linejoin:miter;stroke-miterlimit:4;stroke-opacity:1;stroke-dasharray:none" />
    <path
       d="m 321.90221,335.57425 87.642,0"
       id="path3889"
       style="fill:none;stroke:#000000;stroke-width:10;stroke-linecap:butt;stroke-linejoin:miter;stroke-miterlimit:4;stroke-opacity:1;stroke-dasharray:none" />
  </g>
</svg>
