<?xml version="1.0" encoding="UTF-8" standalone="no"?>
<svg xmlns:dc="http://purl.org/dc/elements/1.1/" xmlns:cc="http://creativecommons.org/ns#" xmlns:rdf="http://www.w3.org/1999/02/22-rdf-syntax-ns#" xmlns:svg="http://www.w3.org/2000/svg" xmlns="http://www.w3.org/2000/svg" xmlns:sodipodi="http://sodipodi.sourceforge.net/DTD/sodipodi-0.dtd" xmlns:inkscape="http://www.inkscape.org/namespaces/inkscape" viewBox="0 -256 1792 1792" id="svg2" version="1.1" inkscape:version="0.48.3.1 r9886" width="100%" height="100%" sodipodi:docname="zoom_in_font_awesome.svg">
  <metadata id="metadata12">
    <rdf:RDF>
      <cc:Work rdf:about="">
        <dc:format>image/svg+xml</dc:format>
        <dc:type rdf:resource="http://purl.org/dc/dcmitype/StillImage"/>
      </cc:Work>
    </rdf:RDF>
  </metadata>
  <defs id="defs10"/>
  <sodipodi:namedview pagecolor="#ffffff" bordercolor="#666666" borderopacity="1" objecttolerance="10" gridtolerance="10" guidetolerance="10" inkscape:pageopacity="0" inkscape:pageshadow="2" inkscape:window-width="1024" inkscape:window-height="719" id="namedview8" showgrid="false" inkscape:zoom="0.13169643" inkscape:cx="896" inkscape:cy="896" inkscape:window-x="0" inkscape:window-y="25" inkscape:window-maximized="1" inkscape:current-layer="svg2"/>
  <g transform="matrix(1,0,0,-1,68.338983,1224.678)" id="g4">
    <path d="m 1024,736 v -64 q 0,-13 -9.5,-22.5 Q 1005,640 992,640 H 768 V 416 q 0,-13 -9.5,-22.5 Q 749,384 736,384 h -64 q -13,0 -22.5,9.5 Q 640,403 640,416 V 640 H 416 q -13,0 -22.5,9.5 Q 384,659 384,672 v 64 q 0,13 9.5,22.5 9.5,9.5 22.5,9.5 h 224 v 224 q 0,13 9.5,22.5 9.5,9.5 22.5,9.5 h 64 q 13,0 22.5,-9.5 Q 768,1005 768,992 V 768 h 224 q 13,0 22.5,-9.5 9.5,-9.5 9.5,-22.5 z m 128,-32 q 0,185 -131.5,316.5 Q 889,1152 704,1152 519,1152 387.5,1020.5 256,889 256,704 256,519 387.5,387.5 519,256 704,256 889,256 1020.5,387.5 1152,519 1152,704 z m 512,-832 q 0,-53 -37.5,-90.5 -37.5,-37.5 -90.5,-37.5 -54,0 -90,38 L 1103,124 Q 924,0 704,0 561,0 430.5,55.5 300,111 205.5,205.5 111,300 55.5,430.5 0,561 0,704 q 0,143 55.5,273.5 55.5,130.5 150,225 94.5,94.5 225,150 130.5,55.5 273.5,55.5 143,0 273.5,-55.5 130.5,-55.5 225,-150 94.5,-94.5 150,-225 Q 1408,847 1408,704 1408,484 1284,305 l 343,-343 q 37,-37 37,-90 z" id="path6" inkscape:connector-curvature="0" style="fill:currentColor"/>
  </g>
</svg>